<?xml version="1.0" standalone="no"?>
<!DOCTYPE svg PUBLIC "-//W3C//DTD SVG 20010904//EN"
 "http://www.w3.org/TR/2001/REC-SVG-20010904/DTD/svg10.dtd">
<svg version="1.0" xmlns="http://www.w3.org/2000/svg"
 width="300.000000pt" height="300.000000pt" viewBox="0 0 300.000000 300.000000"
 preserveAspectRatio="xMidYMid meet">
<metadata>
Created by potrace 1.11, written by Peter Selinger 2001-2013
</metadata>
<g transform="translate(0.000000,300.000000) scale(0.100000,-0.100000)"
fill="#000000" stroke="none">
<path d="M106 2559 c-23 -4 -50 -18 -69 -38 l-32 -31 0 -990 0 -990 30 -29
c17 -17 47 -34 70 -38 22 -5 463 -8 980 -7 1034 1 978 -3 1021 61 17 26 18 54
19 348 1 347 3 358 57 398 30 22 93 30 122 15 11 -6 46 -30 79 -54 163 -120
393 -98 523 50 56 64 86 140 90 232 6 136 -52 251 -164 323 -150 96 -329 85
-476 -31 -27 -21 -60 -41 -73 -45 -70 -17 -166 58 -154 121 1 5 -4 13 -11 17
-7 5 -8 9 -3 9 7 0 10 102 10 293 -1 256 -3 296 -18 324 -34 64 -44 66 -424
66 -306 0 -344 -2 -368 -17 -89 -59 -83 -177 15 -287 22 -24 54 -72 71 -107
27 -52 32 -74 32 -135 1 -89 -7 -125 -38 -186 -138 -274 -531 -270 -667 7 -31
62 -33 73 -33 167 1 116 12 145 100 255 80 98 100 183 59 245 -36 56 -51 58
-395 59 -174 1 -333 -2 -353 -5z"/>
</g>
</svg>
